<svg fill="#fff" id="Capa_1" enable-background="new 0 0 512 512" height="512" viewBox="0 0 512 512" width="512" xmlns="http://www.w3.org/2000/svg"><g><path d="m467 1h-50c-8.284 0-15 6.716-15 15v45h-357c-24.813 0-45 20.187-45 45v360c0 24.813 20.187 45 45 45h50c8.284 0 15-6.716 15-15v-45h357c24.813 0 45-20.187 45-45v-360c0-24.813-20.187-45-45-45zm-387 480h-35c-8.271 0-15-6.729-15-15s6.729-15 15-15h35zm387-60h-422c-5.258 0-10.305.915-15 2.58v-317.58c0-8.271 6.729-15 15-15h357v285c0 8.284 6.716 15 15 15h50c8.271 0 15 6.729 15 15s-6.729 15-15 15zm15-57.43c-4.693-1.664-9.743-2.57-15-2.57h-35v-330h35c8.271 0 15 6.729 15 15z"/><path d="m256 121c-63.411 0-115 51.589-115 115 0 30.709 12.099 58.645 31.781 79.292l-34.281 45.708h-62.5c-8.284 0-15 6.716-15 15s6.716 15 15 15h70c4.721 0 9.167-2.223 12-6l38.135-50.847c17.449 10.682 37.95 16.847 59.865 16.847 63.411 0 115-51.589 115-115s-51.589-115-115-115zm-15 198.648c-39.736-7.108-70-41.899-70-83.648 0-18.028 5.658-34.75 15.268-48.52l54.732 54.733zm-33.519-153.38c13.769-9.61 30.492-15.268 48.519-15.268s34.75 5.658 48.519 15.268l-48.519 48.519zm63.519 153.38v-68.648h68.648c-6.237 34.863-33.785 62.411-68.648 68.648zm21.213-98.648 33.519-33.52c6.881 9.859 11.718 21.234 13.916 33.52z"/><path d="m76 331h40c8.284 0 15-6.716 15-15s-6.716-15-15-15h-40c-8.284 0-15 6.716-15 15s6.716 15 15 15z"/></g></svg>